<svg xmlns="http://www.w3.org/2000/svg" xmlns:xlink="http://www.w3.org/1999/xlink" width="2648pt" height="1648pt" viewBox="0.00 0.00 2648.44 1647.80">
<g id="graph0" class="graph" transform="scale(1 1) rotate(0) translate(4 1643.8)">
<title>DFA</title>
<polygon fill="white" stroke="none" points="-4,4 -4,-1643.8 2644.44,-1643.8 2644.44,4 -4,4"/>
<!-- start -->
<g id="node1" class="node">
<title>start</title>
<ellipse fill="black" stroke="black" cx="1.8" cy="-670" rx="1.8" ry="1.8"/>
</g>
<!-- 0 -->
<g id="node13" class="node">
<title>0</title>
<ellipse fill="none" stroke="black" cx="58.6" cy="-670" rx="18" ry="18"/>
<text text-anchor="middle" x="58.6" y="-665.8" font-family="Times,serif" font-size="14.00">0</text>
</g>
<!-- start&#45;&gt;0 -->
<g id="edge1" class="edge">
<title>start-&gt;0</title>
<path fill="none" stroke="black" d="M3.75,-670C6.96,-670 17.8,-670 28.92,-670"/>
<polygon fill="black" stroke="black" points="28.79,-673.5 38.79,-670 28.78,-666.5 28.79,-673.5"/>
</g>
<!-- 5 -->
<g id="node2" class="node">
<title>5</title>
<ellipse fill="none" stroke="black" cx="644.7" cy="-1473" rx="18" ry="18"/>
<ellipse fill="none" stroke="black" cx="644.7" cy="-1473" rx="22" ry="22"/>
<text text-anchor="middle" x="644.7" y="-1468.8" font-family="Times,serif" font-size="14.00">5</text>
</g>
<!-- 6 -->
<g id="node18" class="node">
<title>6</title>
<ellipse fill="none" stroke="black" cx="2622.44" cy="-1045" rx="18" ry="18"/>
<text text-anchor="middle" x="2622.44" y="-1040.8" font-family="Times,serif" font-size="14.00">6</text>
</g>
<!-- 5&#45;&gt;6 -->
<g id="edge19" class="edge">
<title>5-&gt;6</title>
<path fill="none" stroke="black" d="M652.88,-1493.55C664.93,-1523.86 692.31,-1577 736.08,-1577 736.08,-1577 736.08,-1577 2541.75,-1577 2570.28,-1577 2579.69,-1514.43 2586.44,-1483 2618.89,-1331.76 2621.89,-1145.32 2621.74,-1074.32"/>
<polygon fill="black" stroke="black" points="2625.24,-1074.68 2621.69,-1064.7 2618.24,-1074.72 2625.24,-1074.68"/>
<text text-anchor="middle" x="1634.61" y="-1581.2" font-family="Times,serif" font-size="14.00">c</text>
</g>
<!-- 13 -->
<g id="node22" class="node">
<title>13</title>
<ellipse fill="none" stroke="black" cx="2113.17" cy="-1183" rx="20.69" ry="20.69"/>
<text text-anchor="middle" x="2113.17" y="-1178.8" font-family="Times,serif" font-size="14.00">13</text>
</g>
<!-- 5&#45;&gt;13 -->
<g id="edge17" class="edge">
<title>5-&gt;13</title>
<path fill="none" stroke="black" d="M666.87,-1471.9C685.19,-1471.04 712.38,-1470 736.08,-1470 736.08,-1470 736.08,-1470 1895.99,-1470 2023,-1470 2084.73,-1288.45 2104.67,-1214.14"/>
<polygon fill="black" stroke="black" points="2108.01,-1215.2 2107.14,-1204.65 2101.24,-1213.45 2108.01,-1215.2"/>
<text text-anchor="middle" x="1374.63" y="-1474.2" font-family="Times,serif" font-size="14.00">a</text>
</g>
<!-- 14 -->
<g id="node23" class="node">
<title>14</title>
<ellipse fill="none" stroke="black" cx="737.08" cy="-1331" rx="20.69" ry="20.69"/>
<text text-anchor="middle" x="737.08" y="-1326.8" font-family="Times,serif" font-size="14.00">14</text>
</g>
<!-- 5&#45;&gt;14 -->
<g id="edge18" class="edge">
<title>5-&gt;14</title>
<path fill="none" stroke="black" d="M657.33,-1454.73C672.96,-1430.18 700.85,-1386.36 718.9,-1358"/>
<polygon fill="black" stroke="black" points="721.83,-1359.91 724.25,-1349.59 715.93,-1356.15 721.83,-1359.91"/>
<text text-anchor="middle" x="690.89" y="-1410.46" font-family="Times,serif" font-size="14.00">b</text>
</g>
<!-- 8 -->
<g id="node3" class="node">
<title>8</title>
<ellipse fill="none" stroke="black" cx="1079.15" cy="-751" rx="18" ry="18"/>
<ellipse fill="none" stroke="black" cx="1079.15" cy="-751" rx="22" ry="22"/>
<text text-anchor="middle" x="1079.15" y="-746.8" font-family="Times,serif" font-size="14.00">8</text>
</g>
<!-- 3 -->
<g id="node16" class="node">
<title>3</title>
<ellipse fill="none" stroke="black" cx="1164.84" cy="-432" rx="18" ry="18"/>
<text text-anchor="middle" x="1164.84" y="-427.8" font-family="Times,serif" font-size="14.00">3</text>
</g>
<!-- 8&#45;&gt;3 -->
<g id="edge28" class="edge">
<title>8-&gt;3</title>
<path fill="none" stroke="black" d="M1085.77,-729.57C1100.44,-673.67 1139.88,-523.35 1156.4,-460.37"/>
<polygon fill="black" stroke="black" points="1159.76,-461.35 1158.91,-450.79 1152.99,-459.58 1159.76,-461.35"/>
<text text-anchor="middle" x="1122.65" y="-605.26" font-family="Times,serif" font-size="14.00">c</text>
</g>
<!-- 16 -->
<g id="node25" class="node">
<title>16</title>
<ellipse fill="none" stroke="black" cx="1332.83" cy="-682" rx="20.69" ry="20.69"/>
<text text-anchor="middle" x="1332.83" y="-677.8" font-family="Times,serif" font-size="14.00">16</text>
</g>
<!-- 8&#45;&gt;16 -->
<g id="edge26" class="edge">
<title>8-&gt;16</title>
<path fill="none" stroke="black" d="M1100.75,-745.35C1145.06,-733.2 1249.63,-704.54 1301.53,-690.31"/>
<polygon fill="black" stroke="black" points="1302.17,-693.76 1310.89,-687.74 1300.32,-687.01 1302.17,-693.76"/>
<text text-anchor="middle" x="1206.65" y="-720.7" font-family="Times,serif" font-size="14.00">a</text>
</g>
<!-- 17 -->
<g id="node26" class="node">
<title>17</title>
<ellipse fill="none" stroke="black" cx="1164.84" cy="-791" rx="20.69" ry="20.69"/>
<text text-anchor="middle" x="1164.84" y="-786.8" font-family="Times,serif" font-size="14.00">17</text>
</g>
<!-- 8&#45;&gt;17 -->
<g id="edge27" class="edge">
<title>8-&gt;17</title>
<path fill="none" stroke="black" d="M1099.56,-760.28C1110.21,-765.37 1123.61,-771.77 1135.42,-777.41"/>
<polygon fill="black" stroke="black" points="1133.79,-780.51 1144.32,-781.67 1136.81,-774.2 1133.79,-780.51"/>
<text text-anchor="middle" x="1122.65" y="-776.4" font-family="Times,serif" font-size="14.00">b</text>
</g>
<!-- 10 -->
<g id="node4" class="node">
<title>10</title>
<ellipse fill="none" stroke="black" cx="2368.76" cy="-494" rx="20.69" ry="20.69"/>
<ellipse fill="none" stroke="black" cx="2368.76" cy="-494" rx="24.69" ry="24.69"/>
<text text-anchor="middle" x="2368.76" y="-489.8" font-family="Times,serif" font-size="14.00">10</text>
</g>
<!-- 10&#45;&gt;6 -->
<g id="edge34" class="edge">
<title>10-&gt;6</title>
<path fill="none" stroke="black" d="M2393.6,-496.36C2439.63,-502.3 2540.24,-522.4 2586.44,-587 2611.3,-621.76 2619.07,-919.42 2620.94,-1015.34"/>
<polygon fill="black" stroke="black" points="2617.43,-1015.31 2621.12,-1025.24 2624.43,-1015.18 2617.43,-1015.31"/>
<text text-anchor="middle" x="2498.95" y="-528.57" font-family="Times,serif" font-size="14.00">c</text>
</g>
<!-- 10&#45;&gt;13 -->
<g id="edge32" class="edge">
<title>10-&gt;13</title>
<path fill="none" stroke="black" d="M2366.34,-518.85C2362.06,-589.61 2348.21,-791.03 2326.07,-853 2302.53,-918.86 2180.29,-1091.56 2132.94,-1157.19"/>
<polygon fill="black" stroke="black" points="2130.17,-1155.04 2127.15,-1165.19 2135.84,-1159.14 2130.17,-1155.04"/>
<text text-anchor="middle" x="2238.96" y="-1012.24" font-family="Times,serif" font-size="14.00">a</text>
</g>
<!-- 18 -->
<g id="node27" class="node">
<title>18</title>
<ellipse fill="none" stroke="black" cx="2457.15" cy="-819" rx="20.69" ry="20.69"/>
<text text-anchor="middle" x="2457.15" y="-814.8" font-family="Times,serif" font-size="14.00">18</text>
</g>
<!-- 10&#45;&gt;18 -->
<g id="edge33" class="edge">
<title>10-&gt;18</title>
<path fill="none" stroke="black" d="M2376.11,-517.9C2391.48,-575.72 2430.67,-723.16 2447.86,-787.82"/>
<polygon fill="black" stroke="black" points="2444.46,-788.66 2450.41,-797.42 2451.22,-786.86 2444.46,-788.66"/>
<text text-anchor="middle" x="2414.95" y="-680.16" font-family="Times,serif" font-size="14.00">b</text>
</g>
<!-- 12 -->
<g id="node5" class="node">
<title>12</title>
<ellipse fill="none" stroke="black" cx="1504.82" cy="-1073" rx="20.69" ry="20.69"/>
<ellipse fill="none" stroke="black" cx="1504.82" cy="-1073" rx="24.69" ry="24.69"/>
<text text-anchor="middle" x="1504.82" y="-1068.8" font-family="Times,serif" font-size="14.00">12</text>
</g>
<!-- 12&#45;&gt;6 -->
<g id="edge40" class="edge">
<title>12-&gt;6</title>
<path fill="none" stroke="black" d="M1514.05,-1096.23C1520.96,-1113.21 1532.18,-1135.98 1547.51,-1152 1570.35,-1175.85 1642.78,-1227 1675.81,-1227 1675.81,-1227 1675.81,-1227 1980.38,-1227 2013.22,-1227 2020.41,-1237.31 2050.26,-1251 2213.13,-1325.72 2234.77,-1425 2413.95,-1425 2413.95,-1425 2413.95,-1425 2541.75,-1425 2613.21,-1425 2620.96,-1164.33 2621.52,-1074.78"/>
<polygon fill="black" stroke="black" points="2625.02,-1074.85 2621.55,-1064.84 2618.02,-1074.83 2625.02,-1074.85"/>
<text text-anchor="middle" x="2071.37" y="-1266.03" font-family="Times,serif" font-size="14.00">c</text>
</g>
<!-- 12&#45;&gt;18 -->
<g id="edge39" class="edge">
<title>12-&gt;18</title>
<path fill="none" stroke="black" d="M1527.91,-1063.65C1544.95,-1057.28 1569.26,-1050 1591.42,-1050 1591.42,-1050 1591.42,-1050 1812,-1050 1852.14,-1050 1861.59,-1039.8 1898.49,-1024 2029.19,-968.03 2042.14,-912.7 2176.08,-865 2262.85,-834.1 2372.24,-823.8 2424.94,-820.49"/>
<polygon fill="black" stroke="black" points="2424.9,-824 2434.68,-819.93 2424.49,-817.01 2424.9,-824"/>
<text text-anchor="middle" x="1979.38" y="-987.79" font-family="Times,serif" font-size="14.00">b</text>
</g>
<!-- 21 -->
<g id="node30" class="node">
<title>21</title>
<ellipse fill="none" stroke="black" cx="1592.42" cy="-843" rx="20.69" ry="20.69"/>
<text text-anchor="middle" x="1592.42" y="-838.8" font-family="Times,serif" font-size="14.00">21</text>
</g>
<!-- 12&#45;&gt;21 -->
<g id="edge38" class="edge">
<title>12-&gt;21</title>
<path fill="none" stroke="black" d="M1519.29,-1052.85C1522.9,-1046.93 1526.61,-1040.34 1529.51,-1034 1542.8,-1005.01 1568.72,-919.87 1582.43,-873.67"/>
<polygon fill="black" stroke="black" points="1585.73,-874.85 1585.21,-864.27 1579.02,-872.87 1585.73,-874.85"/>
<text text-anchor="middle" x="1550.62" y="-988.85" font-family="Times,serif" font-size="14.00">a</text>
</g>
<!-- 24 -->
<g id="node6" class="node">
<title>24</title>
<ellipse fill="none" stroke="black" cx="385.11" cy="-325" rx="20.69" ry="20.69"/>
<ellipse fill="none" stroke="black" cx="385.11" cy="-325" rx="24.69" ry="24.69"/>
<text text-anchor="middle" x="385.11" y="-320.8" font-family="Times,serif" font-size="14.00">24</text>
</g>
<!-- 33 -->
<g id="node7" class="node">
<title>33</title>
<ellipse fill="none" stroke="black" cx="737.08" cy="-602" rx="20.69" ry="20.69"/>
<ellipse fill="none" stroke="black" cx="737.08" cy="-602" rx="24.69" ry="24.69"/>
<text text-anchor="middle" x="737.08" y="-597.8" font-family="Times,serif" font-size="14.00">33</text>
</g>
<!-- 24&#45;&gt;33 -->
<g id="edge75" class="edge">
<title>24-&gt;33</title>
<path fill="none" stroke="black" d="M388.82,-349.65C396.66,-414.87 422.06,-587 471.71,-587 471.71,-587 471.71,-587 645.7,-587 664.44,-587 685.07,-590.18 701.89,-593.61"/>
<polygon fill="black" stroke="black" points="700.86,-596.96 711.37,-595.66 702.34,-590.12 700.86,-596.96"/>
<text text-anchor="middle" x="556.31" y="-591.2" font-family="Times,serif" font-size="14.00">b</text>
</g>
<!-- 24&#45;&gt;6 -->
<g id="edge76" class="edge">
<title>24-&gt;6</title>
<path fill="none" stroke="black" d="M404.91,-310.25C463.34,-265.93 648.4,-137 823.68,-137 823.68,-137 823.68,-137 1207.65,-137 1244.55,-137 1250.93,-120.15 1287.14,-113 1382.06,-94.26 1407.07,-92 1503.82,-92 1503.82,-92 1503.82,-92 2541.75,-92 2591.5,-92 2565.63,-76.14 2586.44,-276 2616.32,-563.08 2620.7,-913.09 2621.33,-1015.53"/>
<polygon fill="black" stroke="black" points="2617.83,-1015.28 2621.38,-1025.26 2624.83,-1015.24 2617.83,-1015.28"/>
<text text-anchor="middle" x="1504.82" y="-96.26" font-family="Times,serif" font-size="14.00">c</text>
</g>
<!-- 32 -->
<g id="node40" class="node">
<title>32</title>
<ellipse fill="none" stroke="black" cx="472.71" cy="-357" rx="20.69" ry="20.69"/>
<text text-anchor="middle" x="472.71" y="-352.8" font-family="Times,serif" font-size="14.00">32</text>
</g>
<!-- 24&#45;&gt;32 -->
<g id="edge74" class="edge">
<title>24-&gt;32</title>
<path fill="none" stroke="black" d="M408.6,-333.41C418.93,-337.27 431.31,-341.9 442.36,-346.03"/>
<polygon fill="black" stroke="black" points="440.83,-349.19 451.42,-349.42 443.28,-342.64 440.83,-349.19"/>
<text text-anchor="middle" x="430.91" y="-346.16" font-family="Times,serif" font-size="14.00">a</text>
</g>
<!-- 33&#45;&gt;16 -->
<g id="edge101" class="edge">
<title>33-&gt;16</title>
<path fill="none" stroke="black" d="M761.14,-595.73C778.27,-591.62 802.26,-587 823.68,-587 823.68,-587 823.68,-587 1036.65,-587 1139.43,-587 1253.09,-639.84 1304.23,-666.7"/>
<polygon fill="black" stroke="black" points="1302.36,-669.67 1312.83,-671.3 1305.66,-663.5 1302.36,-669.67"/>
<text text-anchor="middle" x="1035.65" y="-591.2" font-family="Times,serif" font-size="14.00">a</text>
</g>
<!-- 33&#45;&gt;17 -->
<g id="edge102" class="edge">
<title>33-&gt;17</title>
<path fill="none" stroke="black" d="M760.18,-611.35C777.21,-617.72 801.53,-625 823.68,-625 823.68,-625 823.68,-625 1080.15,-625 1101.52,-625 1111.44,-623.5 1126.15,-639 1156.87,-671.37 1163.69,-724.72 1164.63,-758.84"/>
<polygon fill="black" stroke="black" points="1161.13,-758.56 1164.74,-768.53 1168.13,-758.49 1161.13,-758.56"/>
<text text-anchor="middle" x="951.26" y="-629.2" font-family="Times,serif" font-size="14.00">b</text>
</g>
<!-- 23 -->
<g id="node32" class="node">
<title>23</title>
<ellipse fill="none" stroke="black" cx="824.68" cy="-1307" rx="20.69" ry="20.69"/>
<text text-anchor="middle" x="824.68" y="-1302.8" font-family="Times,serif" font-size="14.00">23</text>
</g>
<!-- 33&#45;&gt;23 -->
<g id="edge103" class="edge">
<title>33-&gt;23</title>
<path fill="none" stroke="black" d="M741.08,-626.68C754.04,-733.41 805.27,-1155.33 819.81,-1275.13"/>
<polygon fill="black" stroke="black" points="816.32,-1275.37 821,-1284.88 823.27,-1274.53 816.32,-1275.37"/>
<text text-anchor="middle" x="782.88" y="-979.84" font-family="Times,serif" font-size="14.00">c</text>
</g>
<!-- 34 -->
<g id="node8" class="node">
<title>34</title>
<ellipse fill="none" stroke="black" cx="1504.82" cy="-735" rx="20.69" ry="20.69"/>
<ellipse fill="none" stroke="black" cx="1504.82" cy="-735" rx="24.69" ry="24.69"/>
<text text-anchor="middle" x="1504.82" y="-730.8" font-family="Times,serif" font-size="14.00">34</text>
</g>
<!-- 34&#45;&gt;10 -->
<g id="edge106" class="edge">
<title>34-&gt;10</title>
<path fill="none" stroke="black" d="M1522.6,-717.15C1556.1,-682.49 1635.02,-605.65 1715.5,-562 1925.85,-447.91 2230.46,-475.32 2332.77,-488.79"/>
<polygon fill="black" stroke="black" points="2332.07,-492.23 2342.45,-490.11 2333.01,-485.29 2332.07,-492.23"/>
<text text-anchor="middle" x="1937.18" y="-498.3" font-family="Times,serif" font-size="14.00">c</text>
</g>
<!-- 34&#45;&gt;18 -->
<g id="edge105" class="edge">
<title>34-&gt;18</title>
<path fill="none" stroke="black" d="M1504.89,-760.08C1505.18,-793.17 1511.32,-850.41 1547.51,-878 1591.95,-911.87 2002.19,-913.47 2050.26,-885 2083.84,-865.11 2063.34,-833.96 2092.48,-808 2122.43,-781.32 2136.71,-781.7 2176.08,-774 2229.02,-763.65 2302.47,-761.54 2393.45,-787 2405.72,-790.43 2418.39,-796.38 2429.11,-802.22"/>
<polygon fill="black" stroke="black" points="2427.35,-805.24 2437.77,-807.17 2430.83,-799.17 2427.35,-805.24"/>
<text text-anchor="middle" x="1979.38" y="-903.4" font-family="Times,serif" font-size="14.00">b</text>
</g>
<!-- 34&#45;&gt;21 -->
<g id="edge104" class="edge">
<title>34-&gt;21</title>
<path fill="none" stroke="black" d="M1520.93,-754.06C1535.03,-771.86 1556.17,-798.53 1571.62,-818.02"/>
<polygon fill="black" stroke="black" points="1568.8,-820.1 1577.76,-825.76 1574.29,-815.75 1568.8,-820.1"/>
<text text-anchor="middle" x="1550.62" y="-796.44" font-family="Times,serif" font-size="14.00">a</text>
</g>
<!-- 35 -->
<g id="node9" class="node">
<title>35</title>
<ellipse fill="none" stroke="black" cx="2025.57" cy="-1019" rx="20.69" ry="20.69"/>
<ellipse fill="none" stroke="black" cx="2025.57" cy="-1019" rx="24.69" ry="24.69"/>
<text text-anchor="middle" x="2025.57" y="-1014.8" font-family="Times,serif" font-size="14.00">35</text>
</g>
<!-- 35&#45;&gt;10 -->
<g id="edge109" class="edge">
<title>35-&gt;10</title>
<path fill="none" stroke="black" d="M2033.77,-995.43C2040.98,-973.37 2053.15,-939.9 2068.26,-913 2152.4,-763.21 2205.93,-747.53 2301.85,-605 2319.54,-578.72 2337.79,-547.62 2350.58,-525.03"/>
<polygon fill="black" stroke="black" points="2353.46,-527.05 2355.32,-516.62 2347.36,-523.62 2353.46,-527.05"/>
<text text-anchor="middle" x="2196.77" y="-764.77" font-family="Times,serif" font-size="14.00">c</text>
</g>
<!-- 35&#45;&gt;13 -->
<g id="edge107" class="edge">
<title>35-&gt;13</title>
<path fill="none" stroke="black" d="M2037.94,-1040.78C2053.22,-1070.06 2080.41,-1122.16 2097.3,-1154.52"/>
<polygon fill="black" stroke="black" points="2094.18,-1156.09 2101.91,-1163.33 2100.38,-1152.85 2094.18,-1156.09"/>
<text text-anchor="middle" x="2071.37" y="-1110.12" font-family="Times,serif" font-size="14.00">a</text>
</g>
<!-- 35&#45;&gt;18 -->
<g id="edge108" class="edge">
<title>35-&gt;18</title>
<path fill="none" stroke="black" d="M2044.43,-1002.44C2057.06,-991.44 2074.84,-977.35 2092.48,-968 2151.56,-936.68 2170.62,-937.51 2235.46,-921.2 2304.64,-903.8 2325.57,-914.9 2393.45,-893 2405.18,-889.22 2409.32,-889.27 2418.45,-881 2428.53,-871.87 2436.81,-859.42 2443.02,-848.06"/>
<polygon fill="black" stroke="black" points="2446,-849.92 2447.44,-839.42 2439.77,-846.73 2446,-849.92"/>
<text text-anchor="middle" x="2238.96" y="-925.4" font-family="Times,serif" font-size="14.00">b</text>
</g>
<!-- 36 -->
<g id="node10" class="node">
<title>36</title>
<ellipse fill="none" stroke="black" cx="1765.19" cy="-677" rx="20.69" ry="20.69"/>
<ellipse fill="none" stroke="black" cx="1765.19" cy="-677" rx="24.69" ry="24.69"/>
<text text-anchor="middle" x="1765.19" y="-672.8" font-family="Times,serif" font-size="14.00">36</text>
</g>
<!-- 39 -->
<g id="node11" class="node">
<title>39</title>
<ellipse fill="none" stroke="black" cx="2025.57" cy="-1125" rx="20.69" ry="20.69"/>
<ellipse fill="none" stroke="black" cx="2025.57" cy="-1125" rx="24.69" ry="24.69"/>
<text text-anchor="middle" x="2025.57" y="-1120.8" font-family="Times,serif" font-size="14.00">39</text>
</g>
<!-- 36&#45;&gt;39 -->
<g id="edge111" class="edge">
<title>36-&gt;39</title>
<path fill="none" stroke="black" d="M1767.52,-701.94C1772.74,-773.49 1797.88,-981.08 1916.49,-1087 1936.92,-1105.25 1966.65,-1114.86 1989.76,-1119.85"/>
<polygon fill="black" stroke="black" points="1988.86,-1123.24 1999.35,-1121.71 1990.2,-1116.36 1988.86,-1123.24"/>
<text text-anchor="middle" x="1894.99" y="-1072.38" font-family="Times,serif" font-size="14.00">b</text>
</g>
<!-- 36&#45;&gt;6 -->
<g id="edge112" class="edge">
<title>36-&gt;6</title>
<path fill="none" stroke="black" d="M1781.1,-657.9C1802.37,-632.38 1844.13,-588.34 1891.49,-571 2090.65,-498.06 2155.66,-601 2367.76,-601 2367.76,-601 2367.76,-601 2541.75,-601 2588.01,-601 2574.02,-650.44 2586.44,-695 2618.57,-810.3 2622.02,-954.21 2621.87,-1015.33"/>
<polygon fill="black" stroke="black" points="2618.37,-1015.21 2621.8,-1025.24 2625.37,-1015.26 2618.37,-1015.21"/>
<text text-anchor="middle" x="2196.77" y="-586.81" font-family="Times,serif" font-size="14.00">c</text>
</g>
<!-- 38 -->
<g id="node42" class="node">
<title>38</title>
<ellipse fill="none" stroke="black" cx="1852.8" cy="-673" rx="20.69" ry="20.69"/>
<text text-anchor="middle" x="1852.8" y="-668.8" font-family="Times,serif" font-size="14.00">38</text>
</g>
<!-- 36&#45;&gt;38 -->
<g id="edge110" class="edge">
<title>36-&gt;38</title>
<path fill="none" stroke="black" d="M1790.04,-675.89C1799.5,-675.44 1810.5,-674.93 1820.58,-674.46"/>
<polygon fill="black" stroke="black" points="1820.5,-677.97 1830.33,-674 1820.17,-670.97 1820.5,-677.97"/>
<text text-anchor="middle" x="1811" y="-679.2" font-family="Times,serif" font-size="14.00">a</text>
</g>
<!-- 39&#45;&gt;13 -->
<g id="edge119" class="edge">
<title>39-&gt;13</title>
<path fill="none" stroke="black" d="M2046.42,-1138.45C2058.31,-1146.51 2073.55,-1156.83 2086.36,-1165.51"/>
<polygon fill="black" stroke="black" points="2084.09,-1168.2 2094.34,-1170.92 2088.02,-1162.41 2084.09,-1168.2"/>
<text text-anchor="middle" x="2071.37" y="-1159.94" font-family="Times,serif" font-size="14.00">a</text>
</g>
<!-- 39&#45;&gt;18 -->
<g id="edge120" class="edge">
<title>39-&gt;18</title>
<path fill="none" stroke="black" d="M2045.33,-1109.71C2061.44,-1096.62 2083.46,-1078.82 2092.48,-1072 2201.9,-989.19 2230.88,-970.6 2344.07,-893 2373.21,-873.02 2407.14,-850.76 2429.96,-835.92"/>
<polygon fill="black" stroke="black" points="2431.56,-839.05 2438.04,-830.68 2427.75,-833.18 2431.56,-839.05"/>
<text text-anchor="middle" x="2238.96" y="-971.31" font-family="Times,serif" font-size="14.00">b</text>
</g>
<!-- 26 -->
<g id="node34" class="node">
<title>26</title>
<ellipse fill="none" stroke="black" cx="2540.75" cy="-962" rx="20.69" ry="20.69"/>
<text text-anchor="middle" x="2540.75" y="-957.8" font-family="Times,serif" font-size="14.00">26</text>
</g>
<!-- 39&#45;&gt;26 -->
<g id="edge121" class="edge">
<title>39-&gt;26</title>
<path fill="none" stroke="black" d="M2049.51,-1118.09C2090.67,-1104.99 2178.71,-1073.83 2242.46,-1029 2251.93,-1022.35 2250.9,-1016.7 2260.46,-1010.2 2284.04,-994.18 2292.22,-992.99 2319.85,-986 2385.56,-969.37 2465.18,-964.27 2508.3,-962.7"/>
<polygon fill="black" stroke="black" points="2508.31,-966.2 2518.19,-962.38 2508.09,-959.2 2508.31,-966.2"/>
<text text-anchor="middle" x="2281.16" y="-1014.4" font-family="Times,serif" font-size="14.00">c</text>
</g>
<!-- 40 -->
<g id="node12" class="node">
<title>40</title>
<ellipse fill="none" stroke="black" cx="644.7" cy="-416" rx="20.69" ry="20.69"/>
<ellipse fill="none" stroke="black" cx="644.7" cy="-416" rx="24.69" ry="24.69"/>
<text text-anchor="middle" x="644.7" y="-411.8" font-family="Times,serif" font-size="14.00">40</text>
</g>
<!-- 40&#45;&gt;10 -->
<g id="edge124" class="edge">
<title>40-&gt;10</title>
<path fill="none" stroke="black" d="M668.39,-407.7C686.47,-401.83 712.56,-395 736.08,-395 736.08,-395 736.08,-395 952.26,-395 1121.01,-395 1150.7,-323.1 1312.14,-274 1386.18,-251.48 1403.42,-238.47 1480.13,-228.2 1544.32,-219.61 1660.33,-251 1718,-251 1718,-251 1718,-251 2282.16,-251 2325.51,-251 2352.29,-390.35 2362.74,-458"/>
<polygon fill="black" stroke="black" points="2359.28,-458.5 2364.22,-467.87 2366.2,-457.46 2359.28,-458.5"/>
<text text-anchor="middle" x="1504.82" y="-232.4" font-family="Times,serif" font-size="14.00">c</text>
</g>
<!-- 40&#45;&gt;33 -->
<g id="edge123" class="edge">
<title>40-&gt;33</title>
<path fill="none" stroke="black" d="M656.42,-438.07C672.32,-470.79 702.24,-532.35 720.54,-570.02"/>
<polygon fill="black" stroke="black" points="717.19,-571.14 724.71,-578.6 723.49,-568.08 717.19,-571.14"/>
<text text-anchor="middle" x="690.89" y="-518.78" font-family="Times,serif" font-size="14.00">b</text>
</g>
<!-- 40&#45;&gt;32 -->
<g id="edge122" class="edge">
<title>40-&gt;32</title>
<path fill="none" stroke="black" d="M620.27,-412.36C612.21,-410.93 603.16,-409.12 595,-407 587.72,-405.11 529.66,-386.42 511.4,-378 508,-376.43 504.49,-374.67 501.04,-372.86"/>
<polygon fill="black" stroke="black" points="502.84,-369.86 492.39,-368.12 499.48,-376 502.84,-369.86"/>
<text text-anchor="middle" x="556.31" y="-405.37" font-family="Times,serif" font-size="14.00">a</text>
</g>
<!-- 1 -->
<g id="node14" class="node">
<title>1</title>
<ellipse fill="none" stroke="black" cx="556.31" cy="-1423" rx="18" ry="18"/>
<text text-anchor="middle" x="556.31" y="-1418.8" font-family="Times,serif" font-size="14.00">1</text>
</g>
<!-- 0&#45;&gt;1 -->
<g id="edge2" class="edge">
<title>0-&gt;1</title>
<path fill="none" stroke="black" d="M59.15,-688.36C57.7,-767.2 57.18,-1073 136.6,-1073 136.6,-1073 136.6,-1073 473.71,-1073 539.27,-1073 552.18,-1308.89 554.7,-1393.36"/>
<polygon fill="black" stroke="black" points="551.2,-1393.26 554.97,-1403.16 558.2,-1393.07 551.2,-1393.26"/>
<text text-anchor="middle" x="296.72" y="-1077.2" font-family="Times,serif" font-size="14.00">a</text>
</g>
<!-- 2 -->
<g id="node15" class="node">
<title>2</title>
<ellipse fill="none" stroke="black" cx="137.6" cy="-362" rx="18" ry="18"/>
<text text-anchor="middle" x="137.6" y="-357.8" font-family="Times,serif" font-size="14.00">2</text>
</g>
<!-- 0&#45;&gt;2 -->
<g id="edge3" class="edge">
<title>0-&gt;2</title>
<path fill="none" stroke="black" d="M63.96,-652.56C76.66,-601.75 113.73,-453.49 129.43,-390.67"/>
<polygon fill="black" stroke="black" points="132.79,-391.65 131.82,-381.1 126,-389.95 132.79,-391.65"/>
<text text-anchor="middle" x="98.1" y="-529.44" font-family="Times,serif" font-size="14.00">b</text>
</g>
<!-- 0&#45;&gt;3 -->
<g id="edge4" class="edge">
<title>0-&gt;3</title>
<path fill="none" stroke="black" d="M77.03,-670C92.64,-670 116.15,-670 136.6,-670 136.6,-670 136.6,-670 515.51,-670 557.44,-670 558.01,-638.93 595,-619.2 668.67,-579.91 866.78,-497 950.26,-497 950.26,-497 950.26,-497 1080.15,-497 1108.01,-497 1132.19,-474.26 1147.3,-455.68"/>
<polygon fill="black" stroke="black" points="1149.92,-458.01 1153.24,-447.95 1144.37,-453.75 1149.92,-458.01"/>
<text text-anchor="middle" x="598.5" y="-623.4" font-family="Times,serif" font-size="14.00">c</text>
</g>
<!-- 1&#45;&gt;5 -->
<g id="edge6" class="edge">
<title>1-&gt;5</title>
<path fill="none" stroke="black" d="M572.36,-1431.71C584.18,-1438.55 600.99,-1448.28 615.33,-1456.58"/>
<polygon fill="black" stroke="black" points="613.5,-1459.57 623.91,-1461.55 617.01,-1453.51 613.5,-1459.57"/>
<text text-anchor="middle" x="598.5" y="-1452.2" font-family="Times,serif" font-size="14.00">b</text>
</g>
<!-- 4 -->
<g id="node17" class="node">
<title>4</title>
<ellipse fill="none" stroke="black" cx="1416.43" cy="-1117" rx="18" ry="18"/>
<text text-anchor="middle" x="1416.43" y="-1112.8" font-family="Times,serif" font-size="14.00">4</text>
</g>
<!-- 1&#45;&gt;4 -->
<g id="edge5" class="edge">
<title>1-&gt;4</title>
<path fill="none" stroke="black" d="M574.52,-1423C591.95,-1423 619.7,-1423 643.7,-1423 643.7,-1423 643.7,-1423 952.26,-1423 1106.16,-1423 1174.26,-1464.51 1294.14,-1368 1366.19,-1310 1398.26,-1198.71 1409.89,-1146.02"/>
<polygon fill="black" stroke="black" points="1413.3,-1146.82 1411.94,-1136.31 1406.45,-1145.38 1413.3,-1146.82"/>
<text text-anchor="middle" x="993.46" y="-1429.23" font-family="Times,serif" font-size="14.00">a</text>
</g>
<!-- 1&#45;&gt;6 -->
<g id="edge7" class="edge">
<title>1-&gt;6</title>
<path fill="none" stroke="black" d="M556.98,-1441.46C557.17,-1490.97 565.03,-1623 643.7,-1623 643.7,-1623 643.7,-1623 2541.75,-1623 2565.82,-1623 2578.51,-1553.69 2586.44,-1513 2618.32,-1349.37 2621.6,-1148.34 2621.63,-1074.22"/>
<polygon fill="black" stroke="black" points="2625.13,-1074.56 2621.61,-1064.57 2618.13,-1074.57 2625.13,-1074.56"/>
<text text-anchor="middle" x="1592.42" y="-1627.2" font-family="Times,serif" font-size="14.00">c</text>
</g>
<!-- 2&#45;&gt;8 -->
<g id="edge9" class="edge">
<title>2-&gt;8</title>
<path fill="none" stroke="black" d="M139.78,-380.13C144.2,-440.67 162.33,-632 214.81,-632 214.81,-632 214.81,-632 515.51,-632 564.88,-632 907.25,-685.59 954.76,-699 988.09,-708.41 1024.41,-724.47 1048.95,-736.26"/>
<polygon fill="black" stroke="black" points="1047.15,-739.27 1057.67,-740.52 1050.22,-732.98 1047.15,-739.27"/>
<text text-anchor="middle" x="598.5" y="-645.13" font-family="Times,serif" font-size="14.00">b</text>
</g>
<!-- 2&#45;&gt;6 -->
<g id="edge10" class="edge">
<title>2-&gt;6</title>
<path fill="none" stroke="black" d="M138.5,-343.55C138.61,-269.78 143.85,0 214.81,0 214.81,0 214.81,0 2541.75,0 2573.47,0 2576.3,-59.68 2586.44,-129 2612.34,-306.12 2619.75,-879.29 2621.16,-1015.68"/>
<polygon fill="black" stroke="black" points="2617.66,-1015.33 2621.26,-1025.3 2624.66,-1015.26 2617.66,-1015.33"/>
<text text-anchor="middle" x="1374.63" y="-4.2" font-family="Times,serif" font-size="14.00">c</text>
</g>
<!-- 7 -->
<g id="node19" class="node">
<title>7</title>
<ellipse fill="none" stroke="black" cx="215.81" cy="-138" rx="18" ry="18"/>
<text text-anchor="middle" x="215.81" y="-133.8" font-family="Times,serif" font-size="14.00">7</text>
</g>
<!-- 2&#45;&gt;7 -->
<g id="edge8" class="edge">
<title>2-&gt;7</title>
<path fill="none" stroke="black" d="M144.33,-345.16C157.38,-306.81 189.41,-212.65 205.41,-165.64"/>
<polygon fill="black" stroke="black" points="208.62,-167.06 208.53,-156.46 202,-164.8 208.62,-167.06"/>
<text text-anchor="middle" x="176.71" y="-260.92" font-family="Times,serif" font-size="14.00">a</text>
</g>
<!-- 3&#45;&gt;10 -->
<g id="edge12" class="edge">
<title>3-&gt;10</title>
<path fill="none" stroke="black" d="M1177.36,-418.61C1191.96,-403.2 1218.72,-380 1247.45,-380 1247.45,-380 1247.45,-380 1375.63,-380 1454.78,-380 1470.47,-342 1549.62,-342 1549.62,-342 1549.62,-342 2282.16,-342 2335.12,-342 2355.67,-412.93 2363.37,-457.88"/>
<polygon fill="black" stroke="black" points="2359.91,-458.4 2364.91,-467.74 2366.83,-457.32 2359.91,-458.4"/>
<text text-anchor="middle" x="1765.19" y="-346.2" font-family="Times,serif" font-size="14.00">b</text>
</g>
<!-- 9 -->
<g id="node20" class="node">
<title>9</title>
<ellipse fill="none" stroke="black" cx="2025.57" cy="-823" rx="18" ry="18"/>
<text text-anchor="middle" x="2025.57" y="-818.8" font-family="Times,serif" font-size="14.00">9</text>
</g>
<!-- 3&#45;&gt;9 -->
<g id="edge11" class="edge">
<title>3-&gt;9</title>
<path fill="none" stroke="black" d="M1179.78,-442.58C1191.82,-451.16 1210.03,-462.79 1227.75,-469 1297.04,-493.26 1811.64,-569.44 1873.49,-609 1945.69,-655.18 1993.47,-749.34 2013.65,-795.82"/>
<polygon fill="black" stroke="black" points="2010.37,-797.04 2017.49,-804.89 2016.81,-794.32 2010.37,-797.04"/>
<text text-anchor="middle" x="1592.42" y="-548.62" font-family="Times,serif" font-size="14.00">a</text>
</g>
<!-- 11 -->
<g id="node21" class="node">
<title>11</title>
<ellipse fill="none" stroke="black" cx="1248.45" cy="-439" rx="20.69" ry="20.69"/>
<text text-anchor="middle" x="1248.45" y="-434.8" font-family="Times,serif" font-size="14.00">11</text>
</g>
<!-- 3&#45;&gt;11 -->
<g id="edge13" class="edge">
<title>3-&gt;11</title>
<path fill="none" stroke="black" d="M1179.45,-421.32C1188,-415.92 1199.35,-411.09 1209.75,-414.2 1214.1,-415.5 1218.42,-417.49 1222.48,-419.78"/>
<polygon fill="black" stroke="black" points="1220.4,-422.6 1230.71,-425.07 1224.19,-416.71 1220.4,-422.6"/>
<text text-anchor="middle" x="1206.65" y="-418.4" font-family="Times,serif" font-size="14.00">c</text>
</g>
<!-- 4&#45;&gt;12 -->
<g id="edge15" class="edge">
<title>4-&gt;12</title>
<path fill="none" stroke="black" d="M1432.88,-1109.13C1443.86,-1103.54 1459,-1095.83 1472.47,-1088.97"/>
<polygon fill="black" stroke="black" points="1473.67,-1092.28 1481,-1084.63 1470.5,-1086.05 1473.67,-1092.28"/>
<text text-anchor="middle" x="1458.63" y="-1101.83" font-family="Times,serif" font-size="14.00">b</text>
</g>
<!-- 4&#45;&gt;6 -->
<g id="edge16" class="edge">
<title>4-&gt;6</title>
<path fill="none" stroke="black" d="M1432.57,-1125.71C1460,-1141.39 1519.87,-1175.14 1571.73,-1201 1608.54,-1219.36 1616.45,-1228.1 1656.11,-1239 1741.2,-1262.37 1981.48,-1231.92 2050.26,-1287.2 2114.83,-1339.09 2029.33,-1463 2112.17,-1463 2112.17,-1463 2112.17,-1463 2541.75,-1463 2620.93,-1463 2623.38,-1169.94 2622.09,-1074.59"/>
<polygon fill="black" stroke="black" points="2625.59,-1074.68 2621.92,-1064.74 2618.59,-1074.8 2625.59,-1074.68"/>
<text text-anchor="middle" x="2025.57" y="-1291.4" font-family="Times,serif" font-size="14.00">c</text>
</g>
<!-- 4&#45;&gt;9 -->
<g id="edge14" class="edge">
<title>4-&gt;9</title>
<path fill="none" stroke="black" d="M1418.35,-1098.81C1422.29,-1042.58 1442.77,-871.16 1547.51,-801 1621.27,-751.6 1905.42,-800.24 1996.39,-817.46"/>
<polygon fill="black" stroke="black" points="1995.47,-820.85 2005.95,-819.3 1996.79,-813.98 1995.47,-820.85"/>
<text text-anchor="middle" x="1719" y="-785.26" font-family="Times,serif" font-size="14.00">a</text>
</g>
<!-- 6&#45;&gt;6 -->
<g id="edge20" class="edge">
<title>6-&gt;6</title>
<path fill="none" stroke="black" d="M2620.06,-1063.15C2619.69,-1072.54 2620.49,-1081 2622.44,-1081 2623.51,-1081 2624.23,-1078.47 2624.61,-1074.64"/>
<polygon fill="black" stroke="black" points="2628.1,-1074.73 2624.79,-1064.67 2621.11,-1074.6 2628.1,-1074.73"/>
<text text-anchor="middle" x="2622.44" y="-1085.2" font-family="Times,serif" font-size="14.00">a</text>
</g>
<!-- 6&#45;&gt;6 -->
<g id="edge21" class="edge">
<title>6-&gt;6</title>
<path fill="none" stroke="black" d="M2618.48,-1062.98C2616.36,-1080.2 2617.68,-1099 2622.44,-1099 2626.16,-1099 2627.77,-1087.53 2627.29,-1074.29"/>
<polygon fill="black" stroke="black" points="2630.8,-1074.18 2626.52,-1064.49 2623.82,-1074.73 2630.8,-1074.18"/>
<text text-anchor="middle" x="2622.44" y="-1103.2" font-family="Times,serif" font-size="14.00">b</text>
</g>
<!-- 6&#45;&gt;6 -->
<g id="edge22" class="edge">
<title>6-&gt;6</title>
<path fill="none" stroke="black" d="M2617.51,-1062.72C2613,-1087.11 2614.65,-1117 2622.44,-1117 2629.08,-1117 2631.25,-1095.33 2628.97,-1073.83"/>
<polygon fill="black" stroke="black" points="2632.48,-1073.61 2627.59,-1064.21 2625.55,-1074.61 2632.48,-1073.61"/>
<text text-anchor="middle" x="2622.44" y="-1121.2" font-family="Times,serif" font-size="14.00">c</text>
</g>
<!-- 7&#45;&gt;10 -->
<g id="edge24" class="edge">
<title>7-&gt;10</title>
<path fill="none" stroke="black" d="M230.08,-126.72C245.02,-115.2 270.51,-99 295.72,-99 295.72,-99 295.72,-99 1207.65,-99 1320.02,-99 1345.25,-137 1457.63,-137 1457.63,-137 1457.63,-137 1635.61,-137 1714.94,-137 1730.67,-175 1810,-175 1810,-175 1810,-175 2155.97,-175 2226.42,-175 2251.02,-188.23 2301.85,-237 2333.47,-267.33 2354.49,-394.51 2363.2,-457.84"/>
<polygon fill="black" stroke="black" points="2359.74,-458.3 2364.53,-467.75 2366.67,-457.37 2359.74,-458.3"/>
<text text-anchor="middle" x="1290.64" y="-112.16" font-family="Times,serif" font-size="14.00">b</text>
</g>
<!-- 7&#45;&gt;6 -->
<g id="edge25" class="edge">
<title>7-&gt;6</title>
<path fill="none" stroke="black" d="M222.51,-121.13C232.66,-94.57 256.58,-46 295.72,-46 295.72,-46 295.72,-46 2541.75,-46 2579.09,-46 2573.34,-90.57 2586.44,-192 2607.66,-356.29 2618.51,-884.06 2620.92,-1015.26"/>
<polygon fill="black" stroke="black" points="2617.42,-1015.24 2621.1,-1025.18 2624.42,-1015.12 2617.42,-1015.24"/>
<text text-anchor="middle" x="1416.43" y="-50.2" font-family="Times,serif" font-size="14.00">c</text>
</g>
<!-- 15 -->
<g id="node24" class="node">
<title>15</title>
<ellipse fill="none" stroke="black" cx="296.72" cy="-202" rx="20.69" ry="20.69"/>
<text text-anchor="middle" x="296.72" y="-197.8" font-family="Times,serif" font-size="14.00">15</text>
</g>
<!-- 7&#45;&gt;15 -->
<g id="edge23" class="edge">
<title>7-&gt;15</title>
<path fill="none" stroke="black" d="M230.56,-149.15C241.75,-158.23 257.84,-171.27 271.22,-182.13"/>
<polygon fill="black" stroke="black" points="268.82,-184.69 278.79,-188.27 273.23,-179.25 268.82,-184.69"/>
<text text-anchor="middle" x="254.92" y="-174.2" font-family="Times,serif" font-size="14.00">a</text>
</g>
<!-- 9&#45;&gt;10 -->
<g id="edge30" class="edge">
<title>9-&gt;10</title>
<path fill="none" stroke="black" d="M2038.45,-810.2C2051.45,-796.33 2073.03,-773.68 2092.48,-755 2192.93,-658.48 2230.26,-647.13 2326.07,-546 2333.04,-538.63 2340.13,-530.21 2346.44,-522.32"/>
<polygon fill="black" stroke="black" points="2349.08,-524.62 2352.49,-514.59 2343.57,-520.31 2349.08,-524.62"/>
<text text-anchor="middle" x="2196.77" y="-684.24" font-family="Times,serif" font-size="14.00">b</text>
</g>
<!-- 9&#45;&gt;6 -->
<g id="edge31" class="edge">
<title>9-&gt;6</title>
<path fill="none" stroke="black" d="M2042.99,-828.35C2070.33,-837.1 2127.04,-854.53 2176.08,-865 2346.09,-901.31 2421.52,-828.83 2561.44,-932 2589.47,-952.67 2605.67,-990.41 2614.02,-1016.56"/>
<polygon fill="black" stroke="black" points="2610.58,-1017.27 2616.79,-1025.86 2617.29,-1015.28 2610.58,-1017.27"/>
<text text-anchor="middle" x="2322.96" y="-879.76" font-family="Times,serif" font-size="14.00">c</text>
</g>
<!-- 9&#45;&gt;9 -->
<g id="edge29" class="edge">
<title>9-&gt;9</title>
<path fill="none" stroke="black" d="M2017.59,-839.29C2015.66,-849.39 2018.32,-859 2025.57,-859 2029.87,-859 2032.56,-855.61 2033.63,-850.74"/>
<polygon fill="black" stroke="black" points="2037.13,-850.78 2033.56,-840.8 2030.13,-850.83 2037.13,-850.78"/>
<text text-anchor="middle" x="2025.57" y="-863.2" font-family="Times,serif" font-size="14.00">a</text>
</g>
<!-- 11&#45;&gt;3 -->
<g id="edge37" class="edge">
<title>11-&gt;3</title>
<path fill="none" stroke="black" d="M1227.58,-437.3C1217.6,-436.44 1205.33,-435.39 1194.37,-434.45"/>
<polygon fill="black" stroke="black" points="1194.92,-430.98 1184.66,-433.61 1194.32,-437.96 1194.92,-430.98"/>
<text text-anchor="middle" x="1206.65" y="-439.91" font-family="Times,serif" font-size="14.00">c</text>
</g>
<!-- 19 -->
<g id="node28" class="node">
<title>19</title>
<ellipse fill="none" stroke="black" cx="1332.83" cy="-304" rx="20.69" ry="20.69"/>
<text text-anchor="middle" x="1332.83" y="-299.8" font-family="Times,serif" font-size="14.00">19</text>
</g>
<!-- 11&#45;&gt;19 -->
<g id="edge35" class="edge">
<title>11-&gt;19</title>
<path fill="none" stroke="black" d="M1260.05,-421.63C1274.08,-398.64 1298.94,-357.89 1315.41,-330.91"/>
<polygon fill="black" stroke="black" points="1318.26,-332.96 1320.48,-322.6 1312.29,-329.31 1318.26,-332.96"/>
<text text-anchor="middle" x="1290.64" y="-379.75" font-family="Times,serif" font-size="14.00">a</text>
</g>
<!-- 20 -->
<g id="node29" class="node">
<title>20</title>
<ellipse fill="none" stroke="black" cx="993.46" cy="-941" rx="20.69" ry="20.69"/>
<text text-anchor="middle" x="993.46" y="-936.8" font-family="Times,serif" font-size="14.00">20</text>
</g>
<!-- 11&#45;&gt;20 -->
<g id="edge36" class="edge">
<title>11-&gt;20</title>
<path fill="none" stroke="black" d="M1236.23,-456.26C1215.02,-488.85 1167.44,-561.57 1126.15,-622 1096.1,-665.98 1080.08,-671.92 1057.15,-720 1026.73,-783.81 1008.38,-865.2 999.97,-909.24"/>
<polygon fill="black" stroke="black" points="996.56,-908.41 998.18,-918.88 1003.45,-909.69 996.56,-908.41"/>
<text text-anchor="middle" x="1122.65" y="-635.71" font-family="Times,serif" font-size="14.00">b</text>
</g>
<!-- 13&#45;&gt;6 -->
<g id="edge42" class="edge">
<title>13-&gt;6</title>
<path fill="none" stroke="black" d="M2132.98,-1176.01C2170.08,-1162.15 2255.26,-1130.03 2326.07,-1101 2334.13,-1097.69 2335.67,-1095.56 2344.07,-1093.2 2448.78,-1063.71 2481.32,-1087 2586.44,-1059 2589.26,-1058.25 2592.16,-1057.33 2595.03,-1056.33"/>
<polygon fill="black" stroke="black" points="2596.19,-1059.64 2604.27,-1052.78 2593.68,-1053.1 2596.19,-1059.64"/>
<text text-anchor="middle" x="2368.76" y="-1097.4" font-family="Times,serif" font-size="14.00">b</text>
</g>
<!-- 13&#45;&gt;6 -->
<g id="edge43" class="edge">
<title>13-&gt;6</title>
<path fill="none" stroke="black" d="M2127.38,-1198.24C2139.55,-1211.99 2158.35,-1232.53 2176.08,-1249 2259.25,-1326.26 2300.44,-1342 2413.95,-1342 2413.95,-1342 2413.95,-1342 2541.75,-1342 2570.57,-1342 2573.91,-1320.96 2586.44,-1295 2604.98,-1256.59 2615.56,-1132.05 2619.57,-1074.57"/>
<polygon fill="black" stroke="black" points="2623.04,-1075.1 2620.22,-1064.89 2616.06,-1074.63 2623.04,-1075.1"/>
<text text-anchor="middle" x="2368.76" y="-1345.98" font-family="Times,serif" font-size="14.00">c</text>
</g>
<!-- 22 -->
<g id="node31" class="node">
<title>22</title>
<ellipse fill="none" stroke="black" cx="2196.77" cy="-1219" rx="20.69" ry="20.69"/>
<text text-anchor="middle" x="2196.77" y="-1214.8" font-family="Times,serif" font-size="14.00">22</text>
</g>
<!-- 13&#45;&gt;22 -->
<g id="edge41" class="edge">
<title>13-&gt;22</title>
<path fill="none" stroke="black" d="M2132.69,-1191.17C2142.81,-1195.63 2155.57,-1201.26 2166.96,-1206.29"/>
<polygon fill="black" stroke="black" points="2165.38,-1209.42 2175.94,-1210.25 2168.21,-1203.01 2165.38,-1209.42"/>
<text text-anchor="middle" x="2154.97" y="-1206.28" font-family="Times,serif" font-size="14.00">a</text>
</g>
<!-- 14&#45;&gt;1 -->
<g id="edge44" class="edge">
<title>14-&gt;1</title>
<path fill="none" stroke="black" d="M718.07,-1340.27C686.11,-1356.72 619.41,-1391.04 582.77,-1409.9"/>
<polygon fill="black" stroke="black" points="581.5,-1406.62 574.21,-1414.3 584.7,-1412.84 581.5,-1406.62"/>
<text text-anchor="middle" x="644.7" y="-1394.82" font-family="Times,serif" font-size="14.00">a</text>
</g>
<!-- 14&#45;&gt;20 -->
<g id="edge45" class="edge">
<title>14-&gt;20</title>
<path fill="none" stroke="black" d="M749.34,-1313.74C789.56,-1252.07 926.35,-1042.35 975.06,-967.67"/>
<polygon fill="black" stroke="black" points="977.97,-969.62 980.5,-959.33 972.11,-965.79 977.97,-969.62"/>
<text text-anchor="middle" x="866.88" y="-1140.2" font-family="Times,serif" font-size="14.00">b</text>
</g>
<!-- 14&#45;&gt;23 -->
<g id="edge46" class="edge">
<title>14-&gt;23</title>
<path fill="none" stroke="black" d="M757.51,-1325.55C768.12,-1322.58 781.51,-1318.82 793.46,-1315.47"/>
<polygon fill="black" stroke="black" points="794.2,-1318.9 802.88,-1312.83 792.31,-1312.16 794.2,-1318.9"/>
<text text-anchor="middle" x="782.88" y="-1323.2" font-family="Times,serif" font-size="14.00">c</text>
</g>
<!-- 15&#45;&gt;24 -->
<g id="edge48" class="edge">
<title>15-&gt;24</title>
<path fill="none" stroke="black" d="M309.55,-218.84C323.44,-238.62 346.72,-271.77 363.57,-295.76"/>
<polygon fill="black" stroke="black" points="360.65,-297.69 369.26,-303.87 366.38,-293.67 360.65,-297.69"/>
<text text-anchor="middle" x="338.91" y="-267.7" font-family="Times,serif" font-size="14.00">b</text>
</g>
<!-- 15&#45;&gt;3 -->
<g id="edge49" class="edge">
<title>15-&gt;3</title>
<path fill="none" stroke="black" d="M316.94,-206.95C381.86,-223.22 599.18,-274 781.88,-274 781.88,-274 781.88,-274 1036.65,-274 1102.41,-274 1139.92,-358.08 1155.39,-403.57"/>
<polygon fill="black" stroke="black" points="1152.05,-404.62 1158.47,-413.05 1158.71,-402.46 1152.05,-404.62"/>
<text text-anchor="middle" x="737.08" y="-277.94" font-family="Times,serif" font-size="14.00">c</text>
</g>
<!-- 15&#45;&gt;19 -->
<g id="edge47" class="edge">
<title>15-&gt;19</title>
<path fill="none" stroke="black" d="M316.67,-195.35C334,-189.88 360.46,-183 384.11,-183 384.11,-183 384.11,-183 825.68,-183 1012.12,-183 1226.86,-261.62 1303.14,-292.11"/>
<polygon fill="black" stroke="black" points="1301.39,-295.18 1311.97,-295.68 1304.01,-288.69 1301.39,-295.18"/>
<text text-anchor="middle" x="824.68" y="-187.2" font-family="Times,serif" font-size="14.00">a</text>
</g>
<!-- 16&#45;&gt;10 -->
<g id="edge51" class="edge">
<title>16-&gt;10</title>
<path fill="none" stroke="black" d="M1339.99,-662.06C1345.86,-645.94 1356.09,-623.61 1371.53,-609 1433.79,-550.06 1465.51,-555.01 1547.51,-530 1733.36,-473.32 1784.08,-456 1978.38,-456 1978.38,-456 1978.38,-456 2282.16,-456 2302.03,-456 2322.44,-464.66 2338.34,-473.72"/>
<polygon fill="black" stroke="black" points="2336.44,-476.65 2346.8,-478.85 2340.07,-470.67 2336.44,-476.65"/>
<text text-anchor="middle" x="1852.8" y="-465.71" font-family="Times,serif" font-size="14.00">b</text>
</g>
<!-- 16&#45;&gt;6 -->
<g id="edge52" class="edge">
<title>16-&gt;6</title>
<path fill="none" stroke="black" d="M1335.62,-702.75C1344.7,-806.6 1386.43,-1265 1415.43,-1265 1415.43,-1265 1415.43,-1265 1551.62,-1265 1735.39,-1265 1795.16,-1256.59 1957.88,-1342 2057.22,-1394.15 2041.77,-1501 2153.97,-1501 2153.97,-1501 2153.97,-1501 2541.75,-1501 2552.74,-1501 2583.68,-1445.21 2586.44,-1437 2609.03,-1369.69 2618.01,-1153.31 2620.59,-1074.26"/>
<polygon fill="black" stroke="black" points="2624.07,-1074.83 2620.89,-1064.73 2617.08,-1074.61 2624.07,-1074.83"/>
<text text-anchor="middle" x="1979.38" y="-1362.06" font-family="Times,serif" font-size="14.00">c</text>
</g>
<!-- 25 -->
<g id="node33" class="node">
<title>25</title>
<ellipse fill="none" stroke="black" cx="1416.43" cy="-682" rx="20.69" ry="20.69"/>
<text text-anchor="middle" x="1416.43" y="-677.8" font-family="Times,serif" font-size="14.00">25</text>
</g>
<!-- 16&#45;&gt;25 -->
<g id="edge50" class="edge">
<title>16-&gt;25</title>
<path fill="none" stroke="black" d="M1354,-682C1363.09,-682 1374.04,-682 1384.16,-682"/>
<polygon fill="black" stroke="black" points="1383.98,-685.5 1393.98,-682 1383.98,-678.5 1383.98,-685.5"/>
<text text-anchor="middle" x="1374.63" y="-686.2" font-family="Times,serif" font-size="14.00">a</text>
</g>
<!-- 17&#45;&gt;8 -->
<g id="edge54" class="edge">
<title>17-&gt;8</title>
<path fill="none" stroke="black" d="M1153.26,-773.48C1146.71,-764.41 1137.4,-754.2 1126.15,-749.2 1121.92,-747.32 1117.24,-746.38 1112.54,-746.06"/>
<polygon fill="black" stroke="black" points="1112.48,-742.56 1102.56,-746.29 1112.64,-749.55 1112.48,-742.56"/>
<text text-anchor="middle" x="1122.65" y="-753.4" font-family="Times,serif" font-size="14.00">b</text>
</g>
<!-- 17&#45;&gt;9 -->
<g id="edge53" class="edge">
<title>17-&gt;9</title>
<path fill="none" stroke="black" d="M1167.8,-811.75C1172.88,-852.27 1190.38,-938 1247.45,-938 1247.45,-938 1247.45,-938 1635.61,-938 1742.02,-938 1772.5,-944.49 1873.49,-911 1922.71,-894.67 1973.53,-860.94 2001.88,-840.31"/>
<polygon fill="black" stroke="black" points="2003.77,-843.27 2009.72,-834.51 1999.6,-837.65 2003.77,-843.27"/>
<text text-anchor="middle" x="1592.42" y="-942.2" font-family="Times,serif" font-size="14.00">a</text>
</g>
<!-- 17&#45;&gt;26 -->
<g id="edge55" class="edge">
<title>17-&gt;26</title>
<path fill="none" stroke="black" d="M1168.09,-811.84C1171.9,-840.5 1181.47,-892.95 1203.54,-932 1224.2,-968.56 1244.91,-965.7 1269.14,-1000 1341.9,-1103.03 1303.74,-1167.71 1395.74,-1254 1498.24,-1350.14 1350.07,-1303.51 1916.49,-1342 1977.69,-1346.16 2014.92,-1358.14 2050.26,-1308 2087.42,-1255.28 2030.04,-1215.95 2068.26,-1164 2075.27,-1154.48 2081.66,-1157.77 2092.48,-1153 2174,-1117.08 2425.04,-1010.59 2510.73,-974.29"/>
<polygon fill="black" stroke="black" points="2512.01,-977.55 2519.85,-970.43 2509.28,-971.1 2512.01,-977.55"/>
<text text-anchor="middle" x="1852.8" y="-1343.19" font-family="Times,serif" font-size="14.00">c</text>
</g>
<!-- 18&#45;&gt;6 -->
<g id="edge56" class="edge">
<title>18-&gt;6</title>
<path fill="none" stroke="black" d="M2474.94,-807.97C2486.95,-800.77 2503.81,-792.02 2520.05,-788.2 2550.71,-780.99 2572.19,-784.91 2586.44,-813 2604.18,-847.95 2615.03,-961.46 2619.32,-1015.67"/>
<polygon fill="black" stroke="black" points="2615.81,-1015.68 2620.06,-1025.38 2622.79,-1015.14 2615.81,-1015.68"/>
<text text-anchor="middle" x="2540.75" y="-792.4" font-family="Times,serif" font-size="14.00">a</text>
</g>
<!-- 18&#45;&gt;6 -->
<g id="edge57" class="edge">
<title>18-&gt;6</title>
<path fill="none" stroke="black" d="M2477.86,-821.66C2507.18,-826.79 2561.51,-841 2586.44,-878 2614.57,-919.76 2620.78,-979.68 2621.77,-1015.24"/>
<polygon fill="black" stroke="black" points="2618.27,-1015.27 2621.91,-1025.22 2625.27,-1015.17 2618.27,-1015.27"/>
<text text-anchor="middle" x="2540.75" y="-857.28" font-family="Times,serif" font-size="14.00">b</text>
</g>
<!-- 18&#45;&gt;26 -->
<g id="edge58" class="edge">
<title>18-&gt;26</title>
<path fill="none" stroke="black" d="M2468.32,-836.82C2482.32,-861.36 2507.66,-905.78 2524.09,-934.57"/>
<polygon fill="black" stroke="black" points="2520.96,-936.14 2528.95,-943.09 2527.04,-932.67 2520.96,-936.14"/>
<text text-anchor="middle" x="2498.95" y="-898.99" font-family="Times,serif" font-size="14.00">c</text>
</g>
<!-- 19&#45;&gt;10 -->
<g id="edge60" class="edge">
<title>19-&gt;10</title>
<path fill="none" stroke="black" d="M1353.93,-303.57C1426.61,-302.04 1682.7,-297 1893.99,-297 1893.99,-297 1893.99,-297 2282.16,-297 2351.44,-297 2365.25,-400.75 2367.61,-457.67"/>
<polygon fill="black" stroke="black" points="2364.11,-457.65 2367.91,-467.54 2371.1,-457.44 2364.11,-457.65"/>
<text text-anchor="middle" x="1852.8" y="-301.32" font-family="Times,serif" font-size="14.00">b</text>
</g>
<!-- 19&#45;&gt;4 -->
<g id="edge59" class="edge">
<title>19-&gt;4</title>
<path fill="none" stroke="black" d="M1336.64,-324.5C1344.07,-379.15 1364.55,-532.85 1377.74,-661.2 1394.24,-821.73 1408.3,-1014.66 1413.39,-1087.36"/>
<polygon fill="black" stroke="black" points="1409.89,-1087.5 1414.08,-1097.23 1416.88,-1087.01 1409.89,-1087.5"/>
<text text-anchor="middle" x="1374.63" y="-665.4" font-family="Times,serif" font-size="14.00">a</text>
</g>
<!-- 19&#45;&gt;6 -->
<g id="edge61" class="edge">
<title>19-&gt;6</title>
<path fill="none" stroke="black" d="M1353.15,-298.17C1420.34,-278.08 1643.81,-213 1718,-213 1718,-213 1718,-213 2155.97,-213 2231.65,-213 2246.28,-175 2321.96,-175 2321.96,-175 2321.96,-175 2541.75,-175 2584.94,-175 2614.37,-864.07 2620.33,-1015.72"/>
<polygon fill="black" stroke="black" points="2616.81,-1015.46 2620.7,-1025.32 2623.81,-1015.19 2616.81,-1015.46"/>
<text text-anchor="middle" x="1979.38" y="-217.2" font-family="Times,serif" font-size="14.00">c</text>
</g>
<!-- 20&#45;&gt;8 -->
<g id="edge63" class="edge">
<title>20-&gt;8</title>
<path fill="none" stroke="black" d="M1002.79,-922.09C1017.3,-889.14 1047.33,-820.96 1064.79,-781.34"/>
<polygon fill="black" stroke="black" points="1067.91,-782.92 1068.74,-772.36 1061.51,-780.1 1067.91,-782.92"/>
<text text-anchor="middle" x="1035.65" y="-855.9" font-family="Times,serif" font-size="14.00">b</text>
</g>
<!-- 20&#45;&gt;6 -->
<g id="edge64" class="edge">
<title>20-&gt;6</title>
<path fill="none" stroke="black" d="M994.78,-962.03C996.54,-1039.29 1007.68,-1303 1078.15,-1303 1078.15,-1303 1078.15,-1303 1291.64,-1303 1389.93,-1303 1627.68,-1377.1 1722.5,-1403 1770.99,-1416.25 2103.7,-1539 2153.97,-1539 2153.97,-1539 2153.97,-1539 2541.75,-1539 2564.37,-1539 2581.61,-1476.24 2586.44,-1457 2621.55,-1317.1 2623.11,-1142.99 2622.15,-1074.57"/>
<polygon fill="black" stroke="black" points="2625.66,-1074.87 2621.99,-1064.93 2618.66,-1074.99 2625.66,-1074.87"/>
<text text-anchor="middle" x="1811" y="-1437.43" font-family="Times,serif" font-size="14.00">c</text>
</g>
<!-- 20&#45;&gt;9 -->
<g id="edge62" class="edge">
<title>20-&gt;9</title>
<path fill="none" stroke="black" d="M1004.39,-958.67C1018,-980.28 1044.6,-1014 1078.15,-1014 1078.15,-1014 1078.15,-1014 1375.63,-1014 1490.29,-1014 1518.95,-1012 1633.61,-1012 1633.61,-1012 1633.61,-1012 1812,-1012 1851.09,-1012 1865.41,-1016.83 1898.49,-996 1928.27,-977.25 1982.99,-891.56 2009.45,-848.24"/>
<polygon fill="black" stroke="black" points="2012.41,-850.1 2014.6,-839.74 2006.43,-846.47 2012.41,-850.1"/>
<text text-anchor="middle" x="1504.82" y="-1017.52" font-family="Times,serif" font-size="14.00">a</text>
</g>
<!-- 21&#45;&gt;9 -->
<g id="edge67" class="edge">
<title>21-&gt;9</title>
<path fill="none" stroke="black" d="M1613.58,-842.23C1668.71,-840.09 1826.63,-833.82 1957.88,-827 1970.34,-826.35 1984.11,-825.54 1995.89,-824.82"/>
<polygon fill="black" stroke="black" points="1996.03,-828.32 2005.79,-824.21 1995.59,-821.33 1996.03,-828.32"/>
<text text-anchor="middle" x="1811" y="-838.26" font-family="Times,serif" font-size="14.00">c</text>
</g>
<!-- 27 -->
<g id="node35" class="node">
<title>27</title>
<ellipse fill="none" stroke="black" cx="1676.81" cy="-1144" rx="20.69" ry="20.69"/>
<text text-anchor="middle" x="1676.81" y="-1139.8" font-family="Times,serif" font-size="14.00">27</text>
</g>
<!-- 21&#45;&gt;27 -->
<g id="edge65" class="edge">
<title>21-&gt;27</title>
<path fill="none" stroke="black" d="M1598.83,-862.75C1612.85,-913.99 1650.48,-1051.47 1667.38,-1113.23"/>
<polygon fill="black" stroke="black" points="1663.97,-1114 1669.98,-1122.72 1670.72,-1112.15 1663.97,-1114"/>
<text text-anchor="middle" x="1634.61" y="-1006.73" font-family="Times,serif" font-size="14.00">a</text>
</g>
<!-- 28 -->
<g id="node36" class="node">
<title>28</title>
<ellipse fill="none" stroke="black" cx="1676.81" cy="-696" rx="20.69" ry="20.69"/>
<text text-anchor="middle" x="1676.81" y="-691.8" font-family="Times,serif" font-size="14.00">28</text>
</g>
<!-- 21&#45;&gt;28 -->
<g id="edge66" class="edge">
<title>21-&gt;28</title>
<path fill="none" stroke="black" d="M1603.52,-824.97C1617.74,-799.6 1643.79,-753.14 1660.42,-723.45"/>
<polygon fill="black" stroke="black" points="1663.3,-725.47 1665.14,-715.03 1657.2,-722.05 1663.3,-725.47"/>
<text text-anchor="middle" x="1634.61" y="-778.11" font-family="Times,serif" font-size="14.00">b</text>
</g>
<!-- 22&#45;&gt;6 -->
<g id="edge68" class="edge">
<title>22-&gt;6</title>
<path fill="none" stroke="black" d="M2203.7,-1238.82C2209.29,-1253.62 2219.28,-1272.82 2235.46,-1282 2253.75,-1292.37 2536.63,-1322.37 2586.44,-1279 2616.53,-1252.8 2621.11,-1131.64 2621.56,-1074.71"/>
<polygon fill="black" stroke="black" points="2625.06,-1074.8 2621.6,-1064.79 2618.06,-1074.77 2625.06,-1074.8"/>
<text text-anchor="middle" x="2414.95" y="-1305.5" font-family="Times,serif" font-size="14.00">a</text>
</g>
<!-- 22&#45;&gt;6 -->
<g id="edge70" class="edge">
<title>22-&gt;6</title>
<path fill="none" stroke="black" d="M2214.47,-1230.11C2226.63,-1237.4 2243.82,-1246.1 2260.46,-1249 2392.4,-1272.03 2435.8,-1280.4 2561.44,-1234 2574.28,-1229.26 2579,-1227.49 2586.44,-1216 2614.62,-1172.46 2620.76,-1110.7 2621.74,-1074.55"/>
<polygon fill="black" stroke="black" points="2625.24,-1074.9 2621.88,-1064.85 2618.24,-1074.8 2625.24,-1074.9"/>
<text text-anchor="middle" x="2414.95" y="-1271.76" font-family="Times,serif" font-size="14.00">c</text>
</g>
<!-- 29 -->
<g id="node37" class="node">
<title>29</title>
<ellipse fill="none" stroke="black" cx="2281.16" cy="-1219" rx="20.69" ry="20.69"/>
<text text-anchor="middle" x="2281.16" y="-1214.8" font-family="Times,serif" font-size="14.00">29</text>
</g>
<!-- 22&#45;&gt;29 -->
<g id="edge69" class="edge">
<title>22-&gt;29</title>
<path fill="none" stroke="black" d="M2217.71,-1219C2227.06,-1219 2238.41,-1219 2248.85,-1219"/>
<polygon fill="black" stroke="black" points="2248.6,-1222.5 2258.6,-1219 2248.6,-1215.5 2248.6,-1222.5"/>
<text text-anchor="middle" x="2238.96" y="-1223.2" font-family="Times,serif" font-size="14.00">b</text>
</g>
<!-- 23&#45;&gt;10 -->
<g id="edge72" class="edge">
<title>23-&gt;10</title>
<path fill="none" stroke="black" d="M828.09,-1286.26C838.72,-1203.51 888.74,-893.16 1057.15,-720 1194.99,-578.27 1696.29,-418 1893.99,-418 1893.99,-418 1893.99,-418 2282.16,-418 2310.94,-418 2334.55,-442.32 2349.63,-463.45"/>
<polygon fill="black" stroke="black" points="2346.61,-465.23 2355.1,-471.57 2352.42,-461.32 2346.61,-465.23"/>
<text text-anchor="middle" x="1592.42" y="-481.93" font-family="Times,serif" font-size="14.00">b</text>
</g>
<!-- 30 -->
<g id="node38" class="node">
<title>30</title>
<ellipse fill="none" stroke="black" cx="1937.18" cy="-1057" rx="20.69" ry="20.69"/>
<text text-anchor="middle" x="1937.18" y="-1052.8" font-family="Times,serif" font-size="14.00">30</text>
</g>
<!-- 23&#45;&gt;30 -->
<g id="edge71" class="edge">
<title>23-&gt;30</title>
<path fill="none" stroke="black" d="M841,-1320.23C853.02,-1329.78 870.64,-1342 888.38,-1348 1094.75,-1417.74 1155.79,-1417 1373.63,-1417 1373.63,-1417 1373.63,-1417 1720,-1417 1791.34,-1417 1831.05,-1427.35 1873.49,-1370 1906.45,-1325.47 1926.16,-1159.58 1933.22,-1089.06"/>
<polygon fill="black" stroke="black" points="1936.68,-1089.61 1934.17,-1079.32 1929.72,-1088.93 1936.68,-1089.61"/>
<text text-anchor="middle" x="1374.63" y="-1421.2" font-family="Times,serif" font-size="14.00">a</text>
</g>
<!-- 31 -->
<g id="node39" class="node">
<title>31</title>
<ellipse fill="none" stroke="black" cx="909.07" cy="-1318" rx="20.69" ry="20.69"/>
<text text-anchor="middle" x="909.07" y="-1313.8" font-family="Times,serif" font-size="14.00">31</text>
</g>
<!-- 23&#45;&gt;31 -->
<g id="edge73" class="edge">
<title>23-&gt;31</title>
<path fill="none" stroke="black" d="M841.21,-1294.43C849.72,-1289.08 860.52,-1284.77 870.38,-1288.2 875.62,-1290.02 880.68,-1292.91 885.3,-1296.18"/>
<polygon fill="black" stroke="black" points="882.92,-1298.76 892.91,-1302.28 887.3,-1293.3 882.92,-1298.76"/>
<text text-anchor="middle" x="866.88" y="-1292.4" font-family="Times,serif" font-size="14.00">c</text>
</g>
<!-- 25&#45;&gt;34 -->
<g id="edge78" class="edge">
<title>25-&gt;34</title>
<path fill="none" stroke="black" d="M1434.5,-692.47C1445.63,-699.3 1460.46,-708.4 1473.55,-716.43"/>
<polygon fill="black" stroke="black" points="1471.49,-719.27 1481.84,-721.52 1475.15,-713.3 1471.49,-719.27"/>
<text text-anchor="middle" x="1458.63" y="-712.7" font-family="Times,serif" font-size="14.00">b</text>
</g>
<!-- 25&#45;&gt;6 -->
<g id="edge79" class="edge">
<title>25-&gt;6</title>
<path fill="none" stroke="black" d="M1437.03,-678.8C1487.27,-670.78 1624.89,-649.95 1740.5,-643 1952.85,-630.23 2010.66,-633.16 2217.46,-683 2265.66,-694.61 2272.39,-722 2321.96,-722 2321.96,-722 2321.96,-722 2541.75,-722 2601.9,-722 2616.93,-935.86 2620.44,-1015.54"/>
<polygon fill="black" stroke="black" points="2616.93,-1015.35 2620.83,-1025.2 2623.92,-1015.06 2616.93,-1015.35"/>
<text text-anchor="middle" x="2025.57" y="-651.89" font-family="Times,serif" font-size="14.00">c</text>
</g>
<!-- 25&#45;&gt;9 -->
<g id="edge77" class="edge">
<title>25-&gt;9</title>
<path fill="none" stroke="black" d="M1437.32,-685.09C1459.77,-688.65 1497.34,-694.8 1529.51,-701 1580.12,-710.75 1934.78,-780.48 1982.88,-799 1988.82,-801.29 1994.92,-804.34 2000.56,-807.5"/>
<polygon fill="black" stroke="black" points="1998.39,-810.29 2008.77,-812.39 2001.97,-804.27 1998.39,-810.29"/>
<text text-anchor="middle" x="1719" y="-743.61" font-family="Times,serif" font-size="14.00">a</text>
</g>
<!-- 26&#45;&gt;6 -->
<g id="edge81" class="edge">
<title>26-&gt;6</title>
<path fill="none" stroke="black" d="M2555.63,-976.46C2568.3,-989.66 2587.19,-1009.32 2601.48,-1024.21"/>
<polygon fill="black" stroke="black" points="2598.78,-1026.46 2608.23,-1031.25 2603.83,-1021.61 2598.78,-1026.46"/>
<text text-anchor="middle" x="2582.94" y="-1012.67" font-family="Times,serif" font-size="14.00">b</text>
</g>
<!-- 26&#45;&gt;22 -->
<g id="edge80" class="edge">
<title>26-&gt;22</title>
<path fill="none" stroke="black" d="M2532.36,-981.44C2525.91,-996.79 2515.47,-1018.19 2502.05,-1034 2461.33,-1081.99 2292.91,-1170.67 2225.67,-1204.96"/>
<polygon fill="black" stroke="black" points="2224.47,-1201.64 2217.13,-1209.29 2227.64,-1207.88 2224.47,-1201.64"/>
<text text-anchor="middle" x="2368.76" y="-1145.03" font-family="Times,serif" font-size="14.00">a</text>
</g>
<!-- 26&#45;&gt;26 -->
<g id="edge82" class="edge">
<title>26-&gt;26</title>
<path fill="none" stroke="black" d="M2533.18,-981.51C2532.02,-991.6 2534.54,-1000.69 2540.75,-1000.69 2544.43,-1000.69 2546.82,-997.49 2547.9,-992.77"/>
<polygon fill="black" stroke="black" points="2551.39,-993.14 2548.25,-983.02 2544.4,-992.89 2551.39,-993.14"/>
<text text-anchor="middle" x="2540.75" y="-1004.89" font-family="Times,serif" font-size="14.00">c</text>
</g>
<!-- 27&#45;&gt;35 -->
<g id="edge84" class="edge">
<title>27-&gt;35</title>
<path fill="none" stroke="black" d="M1697.71,-1144C1715.22,-1144 1741.4,-1144 1764.19,-1144 1764.19,-1144 1764.19,-1144 1895.99,-1144 1949.2,-1144 1988.68,-1088.27 2009.04,-1051.24"/>
<polygon fill="black" stroke="black" points="2011.98,-1053.16 2013.56,-1042.69 2005.79,-1049.89 2011.98,-1053.16"/>
<text text-anchor="middle" x="1852.8" y="-1148.2" font-family="Times,serif" font-size="14.00">b</text>
</g>
<!-- 27&#45;&gt;4 -->
<g id="edge83" class="edge">
<title>27-&gt;4</title>
<path fill="none" stroke="black" d="M1655.73,-1141.9C1610.14,-1137.14 1498.71,-1125.49 1445.98,-1119.98"/>
<polygon fill="black" stroke="black" points="1446.6,-1116.53 1436.29,-1118.97 1445.87,-1123.49 1446.6,-1116.53"/>
<text text-anchor="middle" x="1550.62" y="-1135.32" font-family="Times,serif" font-size="14.00">a</text>
</g>
<!-- 27&#45;&gt;6 -->
<g id="edge85" class="edge">
<title>27-&gt;6</title>
<path fill="none" stroke="black" d="M1692.81,-1157.5C1709.15,-1170.76 1736.63,-1189 1764.19,-1189 1764.19,-1189 1764.19,-1189 1980.38,-1189 2013.22,-1189 2020.41,-1199.31 2050.26,-1213 2213.13,-1287.72 2234.77,-1387 2413.95,-1387 2413.95,-1387 2413.95,-1387 2541.75,-1387 2605.6,-1387 2618.31,-1158.02 2620.83,-1074.78"/>
<polygon fill="black" stroke="black" points="2624.32,-1074.99 2621.09,-1064.9 2617.33,-1074.8 2624.32,-1074.99"/>
<text text-anchor="middle" x="2154.97" y="-1280.99" font-family="Times,serif" font-size="14.00">c</text>
</g>
<!-- 28&#45;&gt;36 -->
<g id="edge87" class="edge">
<title>28-&gt;36</title>
<path fill="none" stroke="black" d="M1697.41,-691.69C1706.94,-689.59 1718.69,-687.01 1729.65,-684.6"/>
<polygon fill="black" stroke="black" points="1730.18,-688.06 1739.2,-682.5 1728.68,-681.23 1730.18,-688.06"/>
<text text-anchor="middle" x="1719" y="-691.84" font-family="Times,serif" font-size="14.00">b</text>
</g>
<!-- 28&#45;&gt;9 -->
<g id="edge88" class="edge">
<title>28-&gt;9</title>
<path fill="none" stroke="black" d="M1696.86,-702.53C1702.79,-704.43 1709.38,-706.42 1715.5,-708 1832.82,-738.2 1882.03,-693.88 1982.88,-761 1995.78,-769.59 2005.73,-783.68 2012.66,-796.25"/>
<polygon fill="black" stroke="black" points="2009.44,-797.63 2017.09,-804.96 2015.67,-794.46 2009.44,-797.63"/>
<text text-anchor="middle" x="1852.8" y="-725.76" font-family="Times,serif" font-size="14.00">c</text>
</g>
<!-- 28&#45;&gt;19 -->
<g id="edge86" class="edge">
<title>28-&gt;19</title>
<path fill="none" stroke="black" d="M1676.04,-674.88C1675.47,-628.68 1668.08,-517.21 1613.11,-448 1579.19,-405.28 1427.82,-341.42 1363.22,-315.53"/>
<polygon fill="black" stroke="black" points="1364.55,-312.29 1353.97,-311.85 1361.96,-318.8 1364.55,-312.29"/>
<text text-anchor="middle" x="1504.82" y="-394.71" font-family="Times,serif" font-size="14.00">a</text>
</g>
<!-- 29&#45;&gt;10 -->
<g id="edge91" class="edge">
<title>29-&gt;10</title>
<path fill="none" stroke="black" d="M2284.92,-1198.27C2288.76,-1169.49 2295.89,-1115.8 2301.85,-1070 2312.78,-986.02 2316.15,-965.1 2326.07,-881 2341.26,-752.16 2357.11,-598.93 2364.09,-530.34"/>
<polygon fill="black" stroke="black" points="2367.57,-530.73 2365.1,-520.43 2360.6,-530.02 2367.57,-530.73"/>
<text text-anchor="middle" x="2322.96" y="-936.58" font-family="Times,serif" font-size="14.00">c</text>
</g>
<!-- 29&#45;&gt;6 -->
<g id="edge89" class="edge">
<title>29-&gt;6</title>
<path fill="none" stroke="black" d="M2300.84,-1212.29C2363.4,-1189.71 2563,-1116.77 2586.44,-1097 2595.02,-1089.76 2602.37,-1079.91 2608.09,-1070.73"/>
<polygon fill="black" stroke="black" points="2611.08,-1072.54 2613.07,-1062.13 2605.03,-1069.03 2611.08,-1072.54"/>
<text text-anchor="middle" x="2457.15" y="-1166.12" font-family="Times,serif" font-size="14.00">a</text>
</g>
<!-- 29&#45;&gt;6 -->
<g id="edge90" class="edge">
<title>29-&gt;6</title>
<path fill="none" stroke="black" d="M2302.22,-1219.37C2319.57,-1219.65 2345.32,-1220 2367.76,-1220 2367.76,-1220 2367.76,-1220 2541.75,-1220 2604.82,-1220 2618.2,-1124.69 2620.88,-1074.75"/>
<polygon fill="black" stroke="black" points="2624.37,-1075.05 2621.29,-1064.91 2617.38,-1074.76 2624.37,-1075.05"/>
<text text-anchor="middle" x="2457.15" y="-1224.2" font-family="Times,serif" font-size="14.00">b</text>
</g>
<!-- 30&#45;&gt;35 -->
<g id="edge93" class="edge">
<title>30-&gt;35</title>
<path fill="none" stroke="black" d="M1956.5,-1048.94C1966.92,-1044.36 1980.27,-1038.49 1992.38,-1033.16"/>
<polygon fill="black" stroke="black" points="1993.47,-1036.5 2001.22,-1029.27 1990.65,-1030.09 1993.47,-1036.5"/>
<text text-anchor="middle" x="1979.38" y="-1044.48" font-family="Times,serif" font-size="14.00">b</text>
</g>
<!-- 30&#45;&gt;6 -->
<g id="edge94" class="edge">
<title>30-&gt;6</title>
<path fill="none" stroke="black" d="M1957.74,-1059.96C1965.55,-1060.83 1974.63,-1061.44 1982.88,-1061 2125.25,-1053.43 2165.93,-1070.04 2301.85,-1027 2310.58,-1024.24 2310.99,-1019.3 2319.85,-1017 2322.52,-1016.31 2323.31,-1016.87 2326.07,-1017 2424.19,-1021.64 2540.04,-1034.91 2592.75,-1041.37"/>
<polygon fill="black" stroke="black" points="2592.31,-1044.84 2602.67,-1042.6 2593.17,-1037.9 2592.31,-1044.84"/>
<text text-anchor="middle" x="2281.16" y="-1043.26" font-family="Times,serif" font-size="14.00">c</text>
</g>
<!-- 30&#45;&gt;9 -->
<g id="edge92" class="edge">
<title>30-&gt;9</title>
<path fill="none" stroke="black" d="M1945.56,-1037.83C1954.5,-1014.51 1969.98,-973.94 1982.88,-939 1994.02,-908.81 2006.46,-874.06 2014.83,-850.52"/>
<polygon fill="black" stroke="black" points="2018.03,-851.96 2018.08,-841.36 2011.43,-849.62 2018.03,-851.96"/>
<text text-anchor="middle" x="1979.38" y="-959.29" font-family="Times,serif" font-size="14.00">a</text>
</g>
<!-- 31&#45;&gt;20 -->
<g id="edge96" class="edge">
<title>31-&gt;20</title>
<path fill="none" stroke="black" d="M914.5,-1297.73C928.08,-1235.6 969.19,-1047.46 985.59,-972.41"/>
<polygon fill="black" stroke="black" points="988.97,-973.36 987.68,-962.85 982.13,-971.87 988.97,-973.36"/>
<text text-anchor="middle" x="951.26" y="-1145" font-family="Times,serif" font-size="14.00">b</text>
</g>
<!-- 31&#45;&gt;23 -->
<g id="edge97" class="edge">
<title>31-&gt;23</title>
<path fill="none" stroke="black" d="M888.31,-1315.36C878.93,-1314.11 867.48,-1312.58 856.96,-1311.18"/>
<polygon fill="black" stroke="black" points="857.5,-1307.72 847.13,-1309.86 856.58,-1314.66 857.5,-1307.72"/>
<text text-anchor="middle" x="866.88" y="-1317.03" font-family="Times,serif" font-size="14.00">c</text>
</g>
<!-- 31&#45;&gt;27 -->
<g id="edge95" class="edge">
<title>31-&gt;27</title>
<path fill="none" stroke="black" d="M929.89,-1320.36C1022.71,-1331.29 1412.09,-1375.54 1462.13,-1355 1553.98,-1317.29 1627.43,-1218.91 1659.02,-1171"/>
<polygon fill="black" stroke="black" points="1661.8,-1173.15 1664.3,-1162.85 1655.92,-1169.34 1661.8,-1173.15"/>
<text text-anchor="middle" x="1290.64" y="-1359.89" font-family="Times,serif" font-size="14.00">a</text>
</g>
<!-- 32&#45;&gt;10 -->
<g id="edge99" class="edge">
<title>32-&gt;10</title>
<path fill="none" stroke="black" d="M475.22,-377.77C479.51,-419.8 495.7,-511 555.31,-511 555.31,-511 555.31,-511 783.88,-511 858.6,-511 875.55,-535 950.26,-535 950.26,-535 950.26,-535 1207.65,-535 1285.83,-535 1815.81,-380 1893.99,-380 1893.99,-380 1893.99,-380 2282.16,-380 2322.29,-380 2345.93,-425.75 2357.87,-459.28"/>
<polygon fill="black" stroke="black" points="2354.51,-460.29 2360.99,-468.67 2361.15,-458.07 2354.51,-460.29"/>
<text text-anchor="middle" x="1416.43" y="-500.26" font-family="Times,serif" font-size="14.00">b</text>
</g>
<!-- 32&#45;&gt;6 -->
<g id="edge100" class="edge">
<title>32-&gt;6</title>
<path fill="none" stroke="black" d="M491.44,-347.61C527.36,-329.01 611.74,-287.42 687.39,-266 829.16,-225.86 869.06,-235.69 1014.15,-210 1099.34,-194.91 1119.13,-175 1205.65,-175 1205.65,-175 1205.65,-175 1635.61,-175 1714.94,-175 1730.67,-137 1810,-137 1810,-137 1810,-137 2541.75,-137 2613.74,-137 2553.79,9.8 2586.44,-359 2608.88,-612.49 2618.23,-920.04 2620.72,-1015.39"/>
<polygon fill="black" stroke="black" points="2617.21,-1015.26 2620.97,-1025.17 2624.21,-1015.08 2617.21,-1015.26"/>
<text text-anchor="middle" x="1550.62" y="-179.2" font-family="Times,serif" font-size="14.00">c</text>
</g>
<!-- 37 -->
<g id="node41" class="node">
<title>37</title>
<ellipse fill="none" stroke="black" cx="556.31" cy="-357" rx="20.69" ry="20.69"/>
<text text-anchor="middle" x="556.31" y="-352.8" font-family="Times,serif" font-size="14.00">37</text>
</g>
<!-- 32&#45;&gt;37 -->
<g id="edge98" class="edge">
<title>32-&gt;37</title>
<path fill="none" stroke="black" d="M493.88,-357C502.97,-357 513.92,-357 524.03,-357"/>
<polygon fill="black" stroke="black" points="523.86,-360.5 533.86,-357 523.86,-353.5 523.86,-360.5"/>
<text text-anchor="middle" x="514.51" y="-361.2" font-family="Times,serif" font-size="14.00">a</text>
</g>
<!-- 37&#45;&gt;40 -->
<g id="edge114" class="edge">
<title>37-&gt;40</title>
<path fill="none" stroke="black" d="M573.97,-368.38C585.41,-376.19 600.9,-386.77 614.38,-395.98"/>
<polygon fill="black" stroke="black" points="612.27,-398.78 622.51,-401.53 616.22,-393 612.27,-398.78"/>
<text text-anchor="middle" x="598.5" y="-390.7" font-family="Times,serif" font-size="14.00">b</text>
</g>
<!-- 37&#45;&gt;3 -->
<g id="edge115" class="edge">
<title>37-&gt;3</title>
<path fill="none" stroke="black" d="M577.21,-357C594.72,-357 620.9,-357 643.7,-357 643.7,-357 643.7,-357 952.26,-357 1023.51,-357 1100.9,-395.25 1139.32,-417.12"/>
<polygon fill="black" stroke="black" points="1137.38,-420.03 1147.78,-422.04 1140.9,-413.98 1137.38,-420.03"/>
<text text-anchor="middle" x="866.88" y="-361.2" font-family="Times,serif" font-size="14.00">c</text>
</g>
<!-- 37&#45;&gt;19 -->
<g id="edge113" class="edge">
<title>37-&gt;19</title>
<path fill="none" stroke="black" d="M577.12,-354.6C602.6,-351.58 648.24,-346.37 687.39,-343 922.52,-322.77 1206.8,-309.44 1300.34,-305.34"/>
<polygon fill="black" stroke="black" points="1300.41,-308.84 1310.25,-304.91 1300.11,-301.85 1300.41,-308.84"/>
<text text-anchor="middle" x="951.26" y="-328.22" font-family="Times,serif" font-size="14.00">a</text>
</g>
<!-- 38&#45;&gt;10 -->
<g id="edge117" class="edge">
<title>38-&gt;10</title>
<path fill="none" stroke="black" d="M1871.5,-664.16C1898.73,-650.86 1952.78,-625.6 2000.88,-610 2094.76,-579.56 2123.81,-592.13 2217.46,-561 2259.72,-546.95 2306.23,-525.18 2336.15,-510.29"/>
<polygon fill="black" stroke="black" points="2337.68,-513.44 2345.04,-505.82 2334.53,-507.19 2337.68,-513.44"/>
<text text-anchor="middle" x="2113.17" y="-592.41" font-family="Times,serif" font-size="14.00">b</text>
</g>
<!-- 38&#45;&gt;6 -->
<g id="edge118" class="edge">
<title>38-&gt;6</title>
<path fill="none" stroke="black" d="M1873.61,-671.06C1939.39,-664.76 2150.13,-645.83 2217.46,-655 2265.22,-661.5 2273.76,-684 2321.96,-684 2321.96,-684 2321.96,-684 2541.75,-684 2564.29,-684 2573.88,-689.27 2586.44,-708 2619.89,-757.88 2622.25,-942.58 2621.83,-1015.3"/>
<polygon fill="black" stroke="black" points="2618.33,-1015.21 2621.75,-1025.24 2625.33,-1015.27 2618.33,-1015.21"/>
<text text-anchor="middle" x="2238.96" y="-664.71" font-family="Times,serif" font-size="14.00">c</text>
</g>
<!-- 38&#45;&gt;30 -->
<g id="edge116" class="edge">
<title>38-&gt;30</title>
<path fill="none" stroke="black" d="M1865.02,-690.26C1868.17,-695.75 1871.32,-701.96 1873.49,-708 1913.81,-820.15 1929,-962.26 1934.01,-1024.89"/>
<polygon fill="black" stroke="black" points="1930.52,-1025.1 1934.77,-1034.81 1937.5,-1024.57 1930.52,-1025.1"/>
<text text-anchor="middle" x="1894.99" y="-795.9" font-family="Times,serif" font-size="14.00">a</text>
</g>
</g>
</svg>